<svg width="40" height="40" viewBox="0 0 40 40" fill="none" xmlns="http://www.w3.org/2000/svg">
<path d="M8.92862 7.14282H31.0715C32.2574 7.14274 33.3984 7.59647 34.2604 8.41092C35.1224 9.22538 35.6401 10.3388 35.7072 11.5228L35.7143 11.7857V28.2143C35.7144 29.4002 35.2607 30.5411 34.4462 31.4032C33.6318 32.2652 32.5184 32.7828 31.3343 32.85L31.0715 32.8571H8.92862C7.74271 32.8572 6.60173 32.4035 5.73972 31.589C4.87772 30.7746 4.36005 29.6611 4.29291 28.4771L4.28577 28.2143V11.7857C4.28569 10.5998 4.73942 9.45878 5.55387 8.59678C6.36832 7.73478 7.48176 7.21711 8.66577 7.14997L8.92862 7.14282H31.0715H8.92862ZM33.5715 15.5785L20.4943 22.3785C20.3677 22.4444 20.2291 22.4842 20.0868 22.4957C19.9445 22.5073 19.8014 22.4903 19.6658 22.4457L19.5058 22.3785L6.42862 15.5785V28.2143C6.42865 28.8417 6.66458 29.4461 7.0896 29.9077C7.51461 30.3692 8.09762 30.6541 8.72291 30.7057L8.92862 30.7143H31.0715C31.6991 30.7142 32.3038 30.4781 32.7654 30.0528C33.2269 29.6274 33.5116 29.0441 33.5629 28.4185L33.5715 28.2143V15.5785ZM31.0715 9.28568H8.92862C8.30121 9.2857 7.69674 9.52164 7.23521 9.94665C6.77368 10.3717 6.48882 10.9547 6.4372 11.58L6.42862 11.7857V13.1628L20.0001 20.22L33.5715 13.1628V11.7857C33.5714 11.158 33.3353 10.5534 32.91 10.0918C32.4847 9.63024 31.9013 9.34554 31.2758 9.29425L31.0715 9.28568Z" fill="#161515"/>
</svg>
