<svg width="41" height="40" viewBox="0 0 41 40" fill="none" xmlns="http://www.w3.org/2000/svg">
<path d="M38.1667 19.8906C38.1667 19.8047 38.1667 19.707 38.1628 19.5938C38.1589 19.2774 38.1511 18.9219 38.1432 18.543C38.112 17.4531 38.0573 16.3672 37.9714 15.3438C37.8542 13.9336 37.6823 12.7578 37.4479 11.875C37.2006 10.9537 36.7158 10.1135 36.042 9.43827C35.3681 8.76307 34.5289 8.27655 33.6081 8.02734C32.5026 7.73047 30.3386 7.54688 27.2917 7.43359C25.8425 7.37891 24.2917 7.34375 22.7409 7.32422C22.1979 7.31641 21.694 7.3125 21.2409 7.30859H20.0925C19.6393 7.3125 19.1354 7.31641 18.5925 7.32422C17.0417 7.34375 15.4909 7.37891 14.0417 7.43359C10.9948 7.55078 8.82684 7.73438 7.72528 8.02734C6.80419 8.27594 5.96461 8.76225 5.29069 9.43755C4.61676 10.1128 4.13216 10.9534 3.88544 11.875C3.64716 12.7578 3.47919 13.9336 3.362 15.3438C3.27606 16.3672 3.22137 17.4531 3.19012 18.543C3.17841 18.9219 3.1745 19.2774 3.17059 19.5938C3.17059 19.707 3.16669 19.8047 3.16669 19.8906V20.1094C3.16669 20.1953 3.16669 20.293 3.17059 20.4063C3.1745 20.7227 3.18231 21.0781 3.19012 21.457C3.22137 22.5469 3.27606 23.6328 3.362 24.6563C3.47919 26.0664 3.65106 27.2422 3.88544 28.125C4.38544 29.9961 5.85419 31.4727 7.72528 31.9727C8.82684 32.2696 10.9948 32.4532 14.0417 32.5664C15.4909 32.6211 17.0417 32.6563 18.5925 32.6758C19.1354 32.6836 19.6393 32.6875 20.0925 32.6914H21.2409C21.694 32.6875 22.1979 32.6836 22.7409 32.6758C24.2917 32.6563 25.8425 32.6211 27.2917 32.5664C30.3386 32.4492 32.5065 32.2657 33.6081 31.9727C35.4792 31.4727 36.9479 30 37.4479 28.125C37.6862 27.2422 37.8542 26.0664 37.9714 24.6563C38.0573 23.6328 38.112 22.5469 38.1432 21.457C38.155 21.0781 38.1589 20.7227 38.1628 20.4063C38.1628 20.293 38.1667 20.1953 38.1667 20.1094V19.8906ZM35.3542 20.0938C35.3542 20.1758 35.3542 20.2656 35.3503 20.3711C35.3464 20.6758 35.3386 21.0117 35.3307 21.375C35.3034 22.4141 35.2487 23.4531 35.1667 24.418C35.0612 25.6758 34.9128 26.7071 34.7292 27.3985C34.487 28.3008 33.7761 29.0157 32.8776 29.2539C32.0573 29.4727 29.9909 29.6485 27.1823 29.7539C25.7604 29.8086 24.2292 29.8438 22.7018 29.8633C22.1667 29.8711 21.6706 29.875 21.2253 29.875H20.1081L18.6315 29.8633C17.1042 29.8438 15.5768 29.8086 14.1511 29.7539C11.3425 29.6446 9.27216 29.4727 8.45575 29.2539C7.55731 29.0117 6.84637 28.3008 6.60419 27.3985C6.42059 26.7071 6.27216 25.6758 6.16669 24.418C6.08466 23.4531 6.03387 22.4141 6.00262 21.375C5.99091 21.0117 5.987 20.6719 5.98309 20.3711C5.98309 20.2656 5.97919 20.1719 5.97919 20.0938V19.9063C5.97919 19.8242 5.97919 19.7344 5.98309 19.6289C5.987 19.3242 5.99481 18.9883 6.00262 18.625C6.02997 17.5859 6.08466 16.5469 6.16669 15.582C6.27216 14.3242 6.42059 13.293 6.60419 12.6016C6.84637 11.6992 7.55731 10.9844 8.45575 10.7461C9.27606 10.5273 11.3425 10.3516 14.1511 10.2461C15.5729 10.1914 17.1042 10.1563 18.6315 10.1367C19.1667 10.1289 19.6628 10.125 20.1081 10.125H21.2253L22.7018 10.1367C24.2292 10.1563 25.7565 10.1914 27.1823 10.2461C29.9909 10.3555 32.0612 10.5273 32.8776 10.7461C33.7761 10.9883 34.487 11.6992 34.7292 12.6016C34.9128 13.293 35.0612 14.3242 35.1667 15.582C35.2487 16.5469 35.2995 17.5859 35.3307 18.625C35.3425 18.9883 35.3464 19.3281 35.3503 19.6289C35.3503 19.7344 35.3542 19.8281 35.3542 19.9063V20.0938ZM17.1901 25.2344L26.2526 19.961L17.1901 14.7656V25.2344Z" fill="#161515"/>
</svg>
